HIERARCHY
ROOT Hips
{
	OFFSET 0.00000 0.00000 0.00000
	CHANNELS 6 Xposition Yposition Zposition Zrotation Yrotation Xrotation 
	JOINT LHipJoint
	{
		OFFSET 0 0 0
		CHANNELS 3 Zrotation Yrotation Xrotation
		JOINT LeftUpLeg
		{
			OFFSET 1.53139 -1.83434 0.76626
			CHANNELS 3 Zrotation Yrotation Xrotation
			JOINT LeftLeg
			{
				OFFSET 2.56112 -7.03663 0.00000
				CHANNELS 3 Zrotation Yrotation Xrotation
				JOINT LeftFoot
				{
					OFFSET 2.59983 -7.14299 0.00000
					CHANNELS 3 Zrotation Yrotation Xrotation
					JOINT LeftToeBase
					{
						OFFSET 0.13742 -0.37757 2.00054
						CHANNELS 3 Zrotation Yrotation Xrotation
						End Site
						{
							OFFSET 0.00000 -0.00000 1.02897
						}
					}
				}
			}
		}
	}
	JOINT RHipJoint
	{
		OFFSET 0 0 0
		CHANNELS 3 Zrotation Yrotation Xrotation
		JOINT RightUpLeg
		{
			OFFSET -1.40122 -1.83435 0.76627
			CHANNELS 3 Zrotation Yrotation Xrotation
			JOINT RightLeg
			{
				OFFSET -2.54052 -6.98003 0.00000
				CHANNELS 3 Zrotation Yrotation Xrotation
				JOINT RightFoot
				{
					OFFSET -2.63179 -7.23079 0.00000
					CHANNELS 3 Zrotation Yrotation Xrotation
					JOINT RightToeBase
					{
						OFFSET -0.24131 -0.66299 2.03908
						CHANNELS 3 Zrotation Yrotation Xrotation
						End Site
						{
							OFFSET -0.00000 -0.00000 1.07391
						}
					}
				}
			}
		}
	}
	JOINT LowerBack
	{
		OFFSET 0 0 0
		CHANNELS 3 Zrotation Yrotation Xrotation
		JOINT Spine
		{
			OFFSET 0.01174 2.10302 -0.29778
			CHANNELS 3 Zrotation Yrotation Xrotation
			JOINT Spine1
			{
				OFFSET 0.00772 2.13227 -0.01247
				CHANNELS 3 Zrotation Yrotation Xrotation
				JOINT Neck
				{
					OFFSET 0 0 0
					CHANNELS 3 Zrotation Yrotation Xrotation
					JOINT Neck1
					{
						OFFSET -0.09219 1.60848 0.31481
						CHANNELS 3 Zrotation Yrotation Xrotation
						JOINT Head
						{
							OFFSET 0.13974 1.65456 -0.31134
							CHANNELS 3 Zrotation Yrotation Xrotation
							End Site
							{
								OFFSET 0.04742 1.69515 -0.14578
							}
						}
					}
				}
				JOINT LeftShoulder
				{
					OFFSET 0 0 0
					CHANNELS 3 Zrotation Yrotation Xrotation
					JOINT LeftArm
					{
						OFFSET 3.24909 1.02882 -0.23993
						CHANNELS 3 Zrotation Yrotation Xrotation
						JOINT LeftForeArm
						{
							OFFSET 5.32955 -0.00000 -0.00000
							CHANNELS 3 Zrotation Yrotation Xrotation
							JOINT LeftHand
							{
								OFFSET 3.69232 -0.00000 -0.00000
								CHANNELS 3 Zrotation Yrotation Xrotation
								JOINT LeftFingerBase
								{
									OFFSET 0 0 0
									CHANNELS 3 Zrotation Yrotation Xrotation
									JOINT LeftHandIndex1
									{
										OFFSET 0.53660 -0.00000 -0.00000
										CHANNELS 3 Zrotation Yrotation Xrotation
										End Site
										{
											OFFSET 0.43262 -0.00000 -0.00000
										}
									}
								}
								JOINT LThumb
								{
									OFFSET 0 0 0
									CHANNELS 3 Zrotation Yrotation Xrotation
									End Site
									{
										OFFSET 0.43922 -0.00000 0.43922
									}
								}
							}
						}
					}
				}
				JOINT RightShoulder
				{
					OFFSET 0 0 0
					CHANNELS 3 Zrotation Yrotation Xrotation
					JOINT RightArm
					{
						OFFSET -3.21387 0.93002 -0.34594
						CHANNELS 3 Zrotation Yrotation Xrotation
						JOINT RightForeArm
						{
							OFFSET -5.23431 -0.00000 0.00000
							CHANNELS 3 Zrotation Yrotation Xrotation
							JOINT RightHand
							{
								OFFSET -3.55301 -0.00000 -0.00000
								CHANNELS 3 Zrotation Yrotation Xrotation
								JOINT RightFingerBase
								{
									OFFSET 0 0 0
									CHANNELS 3 Zrotation Yrotation Xrotation
									JOINT RightHandIndex1
									{
										OFFSET -0.77252 -0.00000 -0.00000
										CHANNELS 3 Zrotation Yrotation Xrotation
										End Site
										{
											OFFSET -0.62283 -0.00000 -0.00000
										}
									}
								}
								JOINT RThumb
								{
									OFFSET 0 0 0
									CHANNELS 3 Zrotation Yrotation Xrotation
									End Site
									{
										OFFSET -0.63234 -0.00000 0.63234
									}
								}
							}
						}
					}
				}
			}
		}
	}
}
MOTION
Frames: 12
Frame Time: .0083333
-9.0970 17.9475 12.6775 2.4071 75.7823 4.9622 0.0000 0.0000 0.0000 -23.9125 -2.4515 -18.6863 1.0013 6.3676 17.8548 0.0293 -1.0668 -3.0363 0.0616 1.6011 4.4045 0.0000 0.0000 0.0000 13.1890 -17.3740 3.3658 -2.0931 -9.0573 25.9748 1.5071 -21.8070 -14.2972 -0.2502 3.2186 -8.8879 4.6243 5.9488 11.9150 -1.2062 8.4794 0.5247 -5.1601 4.0666 -5.2261 -11.9588 -5.6984 -20.2282 7.4838 -5.9955 28.6038 3.9822 -2.7603 13.7102 -0.0000 0.0000 0.0000 -86.6026 10.9821 4.3614 13.6094 -22.1736 -2.6789 -0.0000 -0.0000 12.4928 19.3410 25.4276 8.5705 -7.1250 0.0000 -0.0000 -11.3200 56.3620 -3.1825 -0.0000 0.0000 0.0000 85.5169 2.1307 19.2975 -18.8535 29.2362 -4.9591 0.0000 0.0000 3.0640 -19.2581 8.6797 -3.0181 7.1250 -0.0000 -0.0000 5.4986 -20.8131 3.2006
-8.9524 17.9478 12.6721 2.7532 76.2678 5.2681 0.0000 0.0000 0.0000 -24.3511 -1.7715 -18.4063 0.9930 6.3422 17.7805 0.0194 -2.3042 -2.7552 0.0144 0.7738 2.1265 0.0000 0.0000 0.0000 12.8333 -17.3126 3.0712 -2.3060 -9.4764 27.2971 1.5682 -22.0289 -13.6437 -0.1158 2.1939 -6.0417 4.5604 5.8057 11.8420 -1.1923 8.2793 0.4487 -5.0819 3.9645 -5.2998 -11.9394 -5.6659 -20.1161 7.5008 -5.9712 28.6676 3.9941 -2.7456 13.7103 -0.0000 -0.0000 0.0000 -86.7906 11.0565 3.6218 13.2866 -21.7057 -2.5583 -0.0000 -0.0000 13.1967 18.6430 25.4588 8.2517 -7.1250 0.0000 -0.0000 -12.0636 56.2487 -3.3624 -0.0000 -0.0000 0.0000 85.6822 1.7486 19.4241 -18.9548 29.3625 -5.0087 0.0000 0.0000 2.5047 -19.4076 8.6279 -3.0254 7.1250 -0.0000 -0.0000 5.3909 -20.8586 3.1317
-8.8006 17.9682 12.6645 2.8288 76.6813 5.2666 0.0000 0.0000 0.0000 -24.4299 -1.8157 -17.5660 0.9696 6.2692 17.5674 0.0142 -2.6498 -2.6439 0.1997 2.8778 7.9387 0.0000 0.0000 0.0000 12.4227 -17.4250 2.6343 -2.5558 -9.9386 28.7782 1.6754 -22.3806 -11.8830 -0.0440 1.3533 -3.7214 4.5771 5.6842 11.7991 -1.1611 8.1210 0.3760 -5.0384 3.8812 -5.3732 -11.8397 -5.6102 -20.0374 7.4175 -5.9046 28.7664 3.9600 -2.7166 13.7201 -0.0000 -0.0000 0.0000 -86.9260 11.0940 2.9684 12.9460 -21.2080 -2.4337 -0.0000 -0.0000 13.8616 18.8435 25.4903 8.3553 -7.1250 0.0000 -0.0000 -11.8704 56.3216 -3.3286 -0.0000 -0.0000 0.0000 85.7995 1.3471 19.6024 -18.9893 29.4054 -5.0256 0.0000 0.0000 1.9183 -19.3840 8.7148 -3.0515 7.1250 -0.0000 -0.0000 5.4079 -20.7685 3.1528
-8.6515 17.9881 12.6572 2.9020 77.0652 5.1884 0.0000 0.0000 0.0000 -24.5071 -1.7033 -16.7497 0.9527 6.2157 17.4114 0.0109 -2.8296 -2.5695 0.5488 4.7460 13.1856 0.0000 0.0000 0.0000 12.1098 -17.2593 2.2947 -2.8188 -10.3958 30.2683 1.8485 -23.2175 -9.3041 -0.0051 0.4626 -1.2710 4.6425 5.5841 11.8316 -1.1601 7.9990 0.3530 -5.0627 3.8169 -5.4205 -11.7671 -5.6266 -20.0173 7.3435 -5.9311 28.8908 3.9173 -2.7291 13.7668 0.0000 0.0000 0.0000 -87.0161 11.1125 2.6440 12.7415 -20.9072 -2.3602 -0.0000 -0.0000 14.1495 19.0605 25.8727 8.5739 -7.1250 0.0000 -0.0000 -11.8351 56.7495 -3.4415 0.0000 0.0000 0.0000 86.0555 1.0093 19.4487 -18.9835 29.3982 -5.0227 0.0000 0.0000 1.6747 -19.4586 8.8241 -3.1023 7.1250 -0.0000 -0.0000 5.3544 -20.6490 3.1357
-8.5061 17.9973 12.6506 3.7770 77.4157 5.9098 0.0000 0.0000 0.0000 -24.9800 -1.1173 -16.2279 0.9413 6.1795 17.3063 0.0042 -3.3429 -2.5453 0.3812 3.9651 10.9784 0.0000 0.0000 0.0000 11.7864 -16.6829 1.9198 -3.1162 -10.8808 31.8791 1.9954 -24.2189 -6.2704 -0.0005 -0.1401 0.3849 4.5018 5.5177 11.8470 -1.1991 7.8909 0.3417 -5.0155 3.7647 -5.4662 -11.7716 -5.6980 -20.0017 7.3261 -6.0286 29.0404 3.8985 -2.7732 13.8398 -0.0000 -0.0000 0.0000 -87.0951 11.1126 2.5443 12.5720 -20.6569 -2.3001 -0.0000 -0.0000 14.3257 18.9020 25.9105 8.5097 -7.1250 0.0000 -0.0000 -12.0205 56.7539 -3.4978 -0.0000 -0.0000 0.0000 86.2795 0.6447 19.2974 -19.0107 29.4320 -5.0361 0.0000 0.0000 1.4243 -19.3447 8.7526 -3.0579 7.1250 -0.0000 -0.0000 5.4363 -20.7311 3.1741
-8.3556 18.0302 12.6430 4.6166 77.8171 6.6931 0.0000 0.0000 0.0000 -25.0057 -1.9742 -15.0402 0.9159 6.0979 17.0687 0.0084 -3.0114 -2.5479 1.2897 7.1958 20.2968 0.0000 0.0000 0.0000 11.5077 -16.0912 1.2979 -3.4653 -11.4126 33.6845 2.0273 -24.8268 -3.6810 -0.0137 -0.7552 2.0754 4.3342 5.4256 11.7402 -1.2146 7.7410 0.3104 -4.9097 3.6940 -5.4763 -11.6850 -5.7022 -19.9906 7.3014 -6.0581 29.1093 3.8709 -2.7788 13.8660 0.0000 0.0000 0.0000 -87.2475 11.0819 2.1963 12.4170 -20.4271 -2.2457 -0.0000 -0.0000 14.8517 18.6817 25.8055 8.3734 -7.1250 0.0000 -0.0000 -12.1977 56.6029 -3.5057 0.0000 0.0000 0.0000 86.4490 0.3385 19.1262 -18.9665 29.3770 -5.0144 0.0000 0.0000 1.3207 -19.0015 8.6249 -2.9562 7.1250 -0.0000 -0.0000 5.6836 -20.8857 3.2999
-8.2115 18.0424 12.6376 5.0231 78.3036 7.1193 0.0000 0.0000 0.0000 -25.1737 -1.9962 -14.2686 0.8689 5.9434 16.6203 -0.0048 -3.3771 -2.1208 1.7433 8.3096 23.6585 0.0000 0.0000 0.0000 11.3344 -15.6113 0.4146 -3.8900 -12.0126 35.7767 1.9628 -24.9424 -1.7134 -0.0412 -1.3101 3.6024 4.2483 5.3029 11.5951 -1.2069 7.5614 0.2562 -4.8177 3.6064 -5.4843 -11.6225 -5.6998 -20.0725 7.3540 -6.0855 29.2610 3.8819 -2.7741 13.9516 0.0000 -0.0000 0.0000 -87.4015 11.1454 2.2417 12.3882 -20.3843 -2.2357 -0.0000 -0.0000 15.0520 18.6736 26.0198 8.4333 -7.1250 0.0000 -0.0000 -12.3161 56.8148 -3.6039 0.0000 -0.0000 0.0000 86.6076 0.0439 18.9867 -18.9063 29.3021 -4.9849 0.0000 0.0000 1.3230 -18.8476 8.6223 -2.9296 7.1250 -0.0000 -0.0000 5.7945 -20.8974 3.3635
-8.0742 18.0341 12.6364 5.6389 78.6963 7.6490 0.0000 0.0000 0.0000 -25.6186 -1.0958 -13.8447 0.8240 5.7916 16.1809 -0.0312 -4.3734 -1.6560 1.3608 7.3837 20.8573 0.0000 0.0000 0.0000 11.1060 -15.0232 -0.3851 -4.3656 -12.6317 38.0049 1.8581 -24.7496 -0.3152 -0.0959 -1.9973 5.4981 4.0540 5.1858 11.5733 -1.1775 7.3811 0.2277 -4.6563 3.5196 -5.5495 -11.6332 -5.7005 -20.1437 7.4105 -6.0936 29.4502 3.9124 -2.7688 14.0528 -0.0000 -0.0000 0.0000 -87.4808 11.2307 2.7700 12.3694 -20.3563 -2.2291 -0.0000 -0.0000 14.7315 18.6894 25.9336 8.4152 -7.1250 0.0000 -0.0000 -12.2552 56.7322 -3.5611 -0.0000 -0.0000 0.0000 86.7732 -0.2345 18.8332 -18.8022 29.1722 -4.9341 0.0000 0.0000 1.5820 -18.9468 8.7667 -2.9951 7.1250 -0.0000 -0.0000 5.7227 -20.7401 3.3417
-7.9395 18.0115 12.6423 6.9542 79.0382 8.7586 0.0000 0.0000 0.0000 -26.2720 -0.0583 -13.3752 0.7791 5.6355 15.7305 -0.0524 -5.3044 -1.7065 0.5789 4.8722 13.5445 0.0000 0.0000 0.0000 10.7342 -14.4303 -1.1195 -4.8927 -13.2620 40.3572 1.7009 -24.1758 0.8388 -0.1850 -2.7701 7.6394 3.6600 5.0588 11.6145 -1.1844 7.1614 0.2511 -4.4210 3.4198 -5.6168 -11.5701 -5.6748 -20.1182 7.4504 -6.0957 29.4145 3.9167 -2.7576 14.0303 0.0000 -0.0000 0.0000 -87.4945 11.1847 3.1911 12.2523 -20.1819 -2.1886 -0.0000 -0.0000 14.5706 18.6093 25.7110 8.3109 -7.1250 0.0000 -0.0000 -12.2254 56.4934 -3.4813 0.0000 -0.0000 0.0000 86.9926 -0.5366 18.8618 -18.7723 29.1348 -4.9195 0.0000 0.0000 1.6442 -18.9156 8.7209 -2.9743 7.1250 -0.0000 -0.0000 5.7452 -20.7900 3.3485
-7.8048 17.9985 12.6481 8.1434 79.4374 9.7879 0.0000 0.0000 0.0000 -26.7290 0.1295 -12.6261 0.7455 5.5153 15.3843 -0.0512 -5.5162 -2.0227 0.2320 3.1003 8.5582 0.0000 0.0000 0.0000 10.4746 -13.8550 -1.9085 -5.4306 -13.8529 42.6512 1.5093 -23.1985 1.6140 -0.2915 -3.4718 9.5952 3.2932 4.9285 11.6362 -1.1624 6.9416 0.2775 -4.1668 3.3202 -5.6677 -11.5894 -5.6974 -20.1923 7.5305 -6.1431 29.4157 3.9435 -2.7687 14.0566 0.0000 -0.0000 0.0000 -87.5807 11.0466 3.5082 12.1057 -19.9629 -2.1382 -0.0000 -0.0000 14.8711 18.1693 25.6994 8.0999 -7.1250 0.0000 -0.0000 -12.6779 56.3905 -3.5812 0.0000 -0.0000 0.0000 87.1672 -0.8072 18.8425 -18.7051 29.0507 -4.8868 0.0000 0.0000 1.7085 -18.9394 8.5888 -2.9336 7.1250 -0.0000 -0.0000 5.7284 -20.9272 3.3208
-7.6695 18.0010 12.6520 9.8217 79.8354 11.3147 0.0000 0.0000 0.0000 -27.1251 0.1080 -11.8549 0.7294 5.4566 15.2155 -0.0568 -5.7275 -2.0327 0.3035 3.5420 9.7915 0.0000 0.0000 0.0000 10.1520 -13.3217 -2.6366 -5.9416 -14.3715 44.7468 1.2877 -21.6986 1.9040 -0.4493 -4.3004 11.9234 2.9101 4.8060 11.6288 -1.2061 6.7256 0.3183 -3.9677 3.2244 -5.6777 -11.4507 -5.6983 -20.1695 7.5650 -6.2099 29.2877 3.9168 -2.7782 13.9989 0.0000 -0.0000 0.0000 -87.5039 10.8708 4.3245 11.9949 -19.7970 -2.1006 -0.0000 -0.0000 14.7758 18.3536 25.8165 8.2210 -7.1250 0.0000 -0.0000 -12.5460 56.5453 -3.5904 0.0000 -0.0000 0.0000 87.4284 -0.9676 18.5591 -18.5430 28.8469 -4.8084 0.0000 0.0000 2.1170 -18.7875 8.6483 -2.9283 7.1250 -0.0000 -0.0000 5.8378 -20.8736 3.3919
-7.5363 18.0018 12.6563 11.5945 80.2653 12.9370 0.0000 0.0000 0.0000 -27.4912 0.2350 -11.2840 0.7373 5.4854 15.2983 -0.0645 -6.1655 -2.2426 0.3974 4.0474 11.2099 0.0000 0.0000 0.0000 9.8971 -12.7622 -3.3628 -6.4205 -14.8238 46.6470 1.0238 -19.7109 2.2661 -0.6243 -5.0560 14.0683 2.5662 4.6625 11.6275 -1.2477 6.4876 0.3811 -3.7832 3.1179 -5.6629 -11.2339 -5.6744 -20.1977 7.4918 -6.2273 29.1894 3.8421 -2.7715 13.9513 0.0000 -0.0000 0.0000 -87.3449 10.7158 5.6901 12.0069 -19.8150 -2.1046 -0.0000 -0.0000 14.0129 18.9308 25.7952 8.4886 -7.1250 0.0000 -0.0000 -11.9320 56.6448 -3.4399 0.0000 -0.0000 0.0000 87.7262 -1.0702 18.2168 -18.4090 28.6777 -4.7439 0.0000 0.0000 2.4903 -18.5676 8.6002 -2.8756 7.1250 -0.0000 -0.0000 5.9965 -20.9366 3.4766
